<?xml version="1.0" encoding="utf-8"?>
<!-- Generator: Adobe Illustrator 16.0.0, SVG Export Plug-In . SVG Version: 6.00 Build 0)  -->
<!DOCTYPE svg PUBLIC "-//W3C//DTD SVG 1.1//EN" "http://www.w3.org/Graphics/SVG/1.1/DTD/svg11.dtd">
<svg version="1.1" id="Layer_1" xmlns="http://www.w3.org/2000/svg" xmlns:xlink="http://www.w3.org/1999/xlink" x="0px" y="0px"
	 width="465.185px" height="256.639px" viewBox="0 0 465.185 256.639" enable-background="new 0 0 465.185 256.639"
	 xml:space="preserve">
<rect x="-153.224" y="-94.649" display="none" fill="#FFFFFF" width="789.89" height="291"/>
<g>
	<defs>
		<path id="SVGID_1_" d="M235.216,78.142c16.252,12.732,38.534,22.667,64.474,28.059c2.563-21.271,4.933-43.246,18.266-64.548
			c0,0-20.85-19.503-37.394-41.653C255.764,26.713,241.267,48.191,235.216,78.142"/>
	</defs>
	<clipPath id="SVGID_2_">
		<use xlink:href="#SVGID_1_"  overflow="visible"/>
	</clipPath>
	
		<linearGradient id="SVGID_3_" gradientUnits="userSpaceOnUse" x1="-80.5332" y1="563.2749" x2="-79.4593" y2="563.2749" gradientTransform="matrix(68.5647 58.7951 58.7951 -68.5647 -27352.6133 43380.4141)">
		<stop  offset="0" style="stop-color:#FFFFFF"/>
		<stop  offset="0.2883" style="stop-color:#FFEBC6"/>
		<stop  offset="0.7485" style="stop-color:#FDB913"/>
		<stop  offset="1" style="stop-color:#F37043"/>
	</linearGradient>
	<polygon clip-path="url(#SVGID_2_)" fill="url(#SVGID_3_)" points="270.274,-40.885 370.433,45.001 282.896,147.086 182.736,61.2 	
		"/>
</g>
<g>
	<defs>
		<path id="SVGID_4_" d="M319.339,219.706c0,0-28.944-66.281-25.967-96.721c0,0-30.629-5.533-63.666-32.044
			C190.529,204.968,267.308,203.627,319.339,219.706"/>
	</defs>
	<clipPath id="SVGID_5_">
		<use xlink:href="#SVGID_4_"  overflow="visible"/>
	</clipPath>
	
		<linearGradient id="SVGID_6_" gradientUnits="userSpaceOnUse" x1="-81.1558" y1="563.5415" x2="-80.0816" y2="563.5415" gradientTransform="matrix(109.4958 93.894 93.894 -109.4958 -43828.4023 69432.5547)">
		<stop  offset="0" style="stop-color:#FFFFFF"/>
		<stop  offset="0.6112" style="stop-color:#FDB913"/>
		<stop  offset="1" style="stop-color:#F37043"/>
	</linearGradient>
	<polygon clip-path="url(#SVGID_5_)" fill="url(#SVGID_6_)" points="245.11,27.289 382.967,145.502 264.757,283.357 126.9,165.142 	
		"/>
</g>
<g>
	<defs>
		<path id="SVGID_7_" d="M312.54,125.788c-4.24,24.952,12.484,67.369,21.187,97.771c5.259-5.434,66.734,2.079,131.458-46.527
			c-17.207-28.17-59.354-51.256-67.168-62.811C398.017,114.22,342.476,130.338,312.54,125.788"/>
	</defs>
	<clipPath id="SVGID_8_">
		<use xlink:href="#SVGID_7_"  overflow="visible"/>
	</clipPath>
	
		<linearGradient id="SVGID_9_" gradientUnits="userSpaceOnUse" x1="-81.5903" y1="563.1187" x2="-80.5171" y2="563.1187" gradientTransform="matrix(140.67 24.4626 24.4626 -140.67 -2012.7441 81362.1406)">
		<stop  offset="0" style="stop-color:#FFFFFF"/>
		<stop  offset="0.5522" style="stop-color:#0DB14B"/>
		<stop  offset="0.908" style="stop-color:#007534"/>
		<stop  offset="1" style="stop-color:#007534"/>
	</linearGradient>
	<polygon clip-path="url(#SVGID_8_)" fill="url(#SVGID_9_)" points="312.905,87.74 483.99,117.492 460.578,252.122 289.493,222.369 
			"/>
</g>
<g>
	<defs>
		<path id="SVGID_10_" d="M312.185,110.507c22.236,1.519,35.105,0.792,70.208-10.75c0,0-33.037-29.942-51.544-46.657
			C312.185,83.896,312.185,110.507,312.185,110.507"/>
	</defs>
	<clipPath id="SVGID_11_">
		<use xlink:href="#SVGID_10_"  overflow="visible"/>
	</clipPath>
	
		<linearGradient id="SVGID_12_" gradientUnits="userSpaceOnUse" x1="-81.042" y1="562.5903" x2="-79.9677" y2="562.5903" gradientTransform="matrix(84.0698 22.1254 22.1254 -84.0698 -5338.8125 49158.8281)">
		<stop  offset="0" style="stop-color:#FFFFFF"/>
		<stop  offset="0.5583" style="stop-color:#0DB14B"/>
		<stop  offset="0.8282" style="stop-color:#009542"/>
		<stop  offset="1" style="stop-color:#007534"/>
	</linearGradient>
	<polygon clip-path="url(#SVGID_11_)" fill="url(#SVGID_12_)" points="316.732,35.82 396.896,56.917 377.845,129.306 
		297.682,108.208 	"/>
</g>
<g>
	<path fill="#009548" d="M46.461,109.792L13.31,158.154h31.981v3.12H3.56v-1.56l32.372-46.802H17.21c-6.24,0-9.75,2.73-9.75,8.97
		H5.9v-5.85c0-3.12,1.17-6.24,6.63-6.24H46.461z"/>
	<path fill="#009548" d="M60.499,161.274h-7.02v-27.301c0-4.681-0.78-7.801-5.46-7.801h-1.56v-1.56h7.02c5.46,0,7.02,1.56,7.02,9.36
		V161.274z M56.443,119.932c-2.418,0-4.368-2.34-4.368-4.992c0-2.184,1.404-3.51,3.588-3.51c2.418,0,4.368,2.34,4.368,4.992
		C60.031,118.606,58.627,119.932,56.443,119.932z"/>
	<path fill="#009548" d="M84.68,123.833c10.92,0,17.16,8.58,17.16,19.111s-6.24,19.111-17.16,19.111
		c-10.921,0-17.161-8.58-17.161-19.111S73.759,123.833,84.68,123.833z M84.68,126.953c-5.851,0-9.75,7.021-9.75,15.991
		s3.9,15.991,9.75,15.991c5.85,0,9.75-7.021,9.75-15.991S90.53,126.953,84.68,126.953z"/>
	<path fill="#009548" d="M110.419,133.973c0-4.681-0.78-7.801-5.46-7.801h-1.561v-1.56h7.021c3.9,0,5.85,1.17,6.63,3.12h0.39
		c1.95-1.95,5.46-3.9,10.14-3.9c6.63,0,13.26,2.73,13.26,14.041v23.401h-7.02v-23.401c0-7.8-4.29-10.53-8.581-10.53
		c-3.12,0-5.85,1.95-7.8,4.134v29.797h-7.021V133.973z"/>
</g>
<g>
	<path fill="#009548" d="M20.28,172.792c8.19,0,21.061,1.561,21.061,13.651c0,4.68-3.12,8.97-10.14,11.31
		c10.14,1.561,12.87,6.24,12.87,12.48c0,11.701-11.7,14.041-21.451,14.041H7.02v-42.121c0-4.681-0.78-7.801-5.46-7.801H0v-1.561
		H20.28z M21.451,196.583c6.24,0,12.48-3.51,12.48-10.53c0-7.41-7.8-10.53-14.041-10.53c-1.95,0-4.29,0.391-5.851,0.78v20.28H21.451
		z M14.04,199.703v20.749c2.34,0.702,5.07,1.092,7.411,1.092c9.36,0,14.82-3.899,14.82-10.92s-5.07-10.921-14.82-10.921H14.04z"/>
	<path fill="#009548" d="M61.229,224.274h-7.02v-27.301c0-4.681-0.78-7.801-5.46-7.801h-1.56v-1.56h7.02c5.46,0,7.02,1.56,7.02,9.36
		V224.274z M57.174,182.932c-2.418,0-4.368-2.34-4.368-4.992c0-2.184,1.404-3.51,3.588-3.51c2.418,0,4.368,2.34,4.368,4.992
		C60.762,181.606,59.357,182.932,57.174,182.932z"/>
	<path fill="#009548" d="M83.07,225.054c-6.24,0-10.14-1.17-12.09-3.12s-1.95-4.29-1.95-8.19h1.56c0.78,5.07,4.29,8.19,10.92,8.19
		c5.85,0,8.58-2.34,8.58-5.461c0-3.119-2.34-5.069-7.02-7.02l-4.68-1.95c-5.85-2.418-9.36-5.46-9.36-10.53
		c0-6.631,5.46-10.141,12.871-10.141c5.85,0,9.75,1.17,11.7,3.12c1.95,1.95,1.95,4.29,1.95,8.19h-1.56
		c-0.78-5.07-4.29-8.19-10.53-8.19c-5.07,0-7.8,2.34-7.8,5.46c0,2.73,2.34,4.992,6.24,6.631l4.68,1.949
		c6.63,2.73,10.14,5.461,10.14,10.921C96.72,221.543,90.87,225.054,83.07,225.054z"/>
	<path fill="#009548" d="M111.54,190.733c1.95-1.95,5.46-3.9,10.14-3.9c6.63,0,13.26,2.73,13.26,14.041v23.4h-7.02v-23.4
		c0-7.801-4.29-10.531-8.581-10.531c-3.12,0-5.85,1.95-7.8,4.135v29.797h-7.021v-42.121c0-4.681-0.78-7.801-5.46-7.801h-1.561
		v-1.561h7.021c5.46,0,7.021,1.561,7.021,9.361V190.733z"/>
	<path fill="#009548" d="M167.31,224.274l-2.73-3.51h-0.39c-1.56,1.949-5.07,4.29-10.92,4.29c-4.29,0-11.311-2.341-11.311-10.921
		s9.36-10.92,19.891-10.92h2.34c0-10.921-3.51-13.261-8.19-13.261c-4.29,0-7.41,1.56-8.581,6.63h-3.51c0-2.729,0-5.07,1.95-7.02
		c1.95-1.95,7.02-2.73,11.7-2.73c7.021,0,13.65,2.34,13.65,16.381v21.061H167.31z M164.19,206.333h-2.34
		c-7.8,0-12.48,3.12-12.48,7.8c0,5.07,3.51,7.41,7.41,7.41c3.9,0,5.851-2.34,7.411-4.68V206.333z"/>
	<path fill="#009548" d="M182.908,196.973c0-4.681-0.78-7.801-5.46-7.801h-1.561v-1.56h7.021c3.9,0,5.851,1.17,6.63,3.12h0.391
		c1.95-1.95,5.46-3.9,10.141-3.9c6.63,0,13.26,2.73,13.26,14.041v23.4h-7.02v-23.4c0-7.801-4.291-10.531-8.581-10.531
		c-3.12,0-5.85,1.95-7.8,4.135v29.797h-7.021V196.973z"/>
</g>
<g>
	<path fill="#009548" d="M16.231,246.136c0.605,0.088,1.15,0.249,1.633,0.483c0.484,0.234,0.898,0.534,1.246,0.901
		c0.346,0.365,0.612,0.801,0.798,1.303c0.186,0.504,0.278,1.077,0.278,1.722c0,0.459-0.067,0.94-0.203,1.442
		c-0.135,0.504-0.359,0.992-0.674,1.465c-0.313,0.475-0.725,0.911-1.231,1.312s-1.138,0.728-1.891,0.981
		c-0.58,0.195-1.223,0.332-1.928,0.41s-1.551,0.117-2.536,0.117H6.71v-19.6h4.837c0.443,0,0.847,0.008,1.209,0.021
		c0.361,0.016,0.694,0.037,0.999,0.066c0.304,0.029,0.586,0.066,0.847,0.109c0.261,0.045,0.507,0.096,0.739,0.154
		c0.607,0.166,1.16,0.393,1.657,0.682c0.497,0.287,0.92,0.632,1.268,1.032s0.615,0.854,0.804,1.362
		c0.188,0.508,0.282,1.06,0.282,1.655c0,0.479-0.057,0.938-0.169,1.377s-0.293,0.845-0.541,1.216
		c-0.25,0.371-0.572,0.703-0.967,0.996c-0.396,0.293-0.877,0.537-1.443,0.732V246.136z M12.73,245.155
		c0.469,0,0.874-0.022,1.216-0.065c0.342-0.045,0.649-0.11,0.923-0.198c0.732-0.244,1.267-0.625,1.604-1.143
		c0.336-0.518,0.505-1.128,0.505-1.831c0-0.723-0.176-1.313-0.527-1.772s-0.903-0.801-1.655-1.025
		c-0.371-0.107-0.801-0.183-1.289-0.228c-0.488-0.043-1.064-0.065-1.729-0.065H9.098v6.328H12.73z M9.098,247.308v6.812h2.886
		c0.684,0,1.318-0.032,1.904-0.095c0.586-0.064,1.084-0.164,1.494-0.301c0.449-0.146,0.83-0.334,1.143-0.564
		c0.312-0.229,0.564-0.482,0.754-0.762c0.191-0.277,0.327-0.573,0.41-0.886s0.125-0.63,0.125-0.952c0-0.371-0.044-0.721-0.132-1.047
		c-0.088-0.328-0.232-0.621-0.433-0.879c-0.2-0.26-0.464-0.486-0.791-0.682s-0.734-0.347-1.223-0.454
		c-0.293-0.068-0.628-0.117-1.004-0.146s-0.842-0.044-1.398-0.044H9.098z"/>
	<path fill="#009548" d="M26.008,256.273v-19.6h2.388v19.6H26.008z"/>
	<path fill="#009548" d="M44.397,246.136c0.605,0.088,1.15,0.249,1.633,0.483c0.484,0.234,0.898,0.534,1.246,0.901
		c0.346,0.365,0.612,0.801,0.798,1.303c0.186,0.504,0.278,1.077,0.278,1.722c0,0.459-0.067,0.94-0.203,1.442
		c-0.135,0.504-0.359,0.992-0.674,1.465c-0.313,0.475-0.725,0.911-1.231,1.312s-1.138,0.728-1.891,0.981
		c-0.58,0.195-1.223,0.332-1.928,0.41s-1.551,0.117-2.536,0.117h-5.014v-19.6h4.837c0.443,0,0.847,0.008,1.209,0.021
		c0.361,0.016,0.694,0.037,0.999,0.066c0.304,0.029,0.586,0.066,0.847,0.109c0.261,0.045,0.507,0.096,0.739,0.154
		c0.607,0.166,1.16,0.393,1.657,0.682c0.497,0.287,0.92,0.632,1.268,1.032s0.615,0.854,0.804,1.362
		c0.188,0.508,0.282,1.06,0.282,1.655c0,0.479-0.057,0.938-0.169,1.377s-0.293,0.845-0.541,1.216
		c-0.25,0.371-0.572,0.703-0.967,0.996c-0.396,0.293-0.877,0.537-1.443,0.732V246.136z M40.896,245.155
		c0.469,0,0.874-0.022,1.216-0.065c0.342-0.045,0.649-0.11,0.923-0.198c0.732-0.244,1.267-0.625,1.604-1.143
		c0.336-0.518,0.505-1.128,0.505-1.831c0-0.723-0.176-1.313-0.527-1.772s-0.903-0.801-1.655-1.025
		c-0.371-0.107-0.801-0.183-1.289-0.228c-0.488-0.043-1.064-0.065-1.729-0.065h-2.681v6.328H40.896z M37.264,247.308v6.812h2.886
		c0.684,0,1.318-0.032,1.904-0.095c0.586-0.064,1.084-0.164,1.494-0.301c0.449-0.146,0.83-0.334,1.143-0.564
		c0.312-0.229,0.564-0.482,0.754-0.762c0.191-0.277,0.327-0.573,0.41-0.886s0.125-0.63,0.125-0.952c0-0.371-0.044-0.721-0.132-1.047
		c-0.088-0.328-0.232-0.621-0.433-0.879c-0.2-0.26-0.464-0.486-0.791-0.682s-0.734-0.347-1.223-0.454
		c-0.293-0.068-0.628-0.117-1.004-0.146s-0.842-0.044-1.398-0.044H37.264z"/>
	<path fill="#009548" d="M55.962,236.673v17.446h9.565v2.153H53.574v-19.6H55.962z"/>
	<path fill="#009548" d="M72.477,254.12h10.049v2.153H70.089v-19.6h11.895v2.153h-9.507v6.328h8.452v2.153h-8.452V254.12z"/>
	<path fill="#009548" d="M87.395,247.909h6.46v2.124h-6.46V247.909z"/>
	<path fill="#009548" d="M101.99,256.273h-2.388v-19.6h5.429c0.81,0,1.559,0.049,2.246,0.146s1.319,0.249,1.895,0.454
		c1.171,0.42,2.059,1.048,2.663,1.882c0.604,0.836,0.907,1.863,0.907,3.084c0,0.996-0.197,1.873-0.593,2.629
		c-0.395,0.758-0.968,1.39-1.719,1.897s-1.665,0.892-2.742,1.149c-1.078,0.26-2.3,0.389-3.665,0.389
		c-0.653,0-1.331-0.029-2.033-0.088V256.273z M101.99,246.034c0.322,0.039,0.659,0.068,1.011,0.088s0.684,0.029,0.996,0.029
		c1.123,0,2.08-0.088,2.871-0.264s1.436-0.433,1.934-0.769c0.498-0.338,0.859-0.748,1.084-1.23c0.225-0.484,0.337-1.033,0.337-1.648
		c0-0.762-0.183-1.387-0.55-1.875c-0.365-0.488-0.886-0.859-1.56-1.113c-0.42-0.156-0.903-0.266-1.45-0.33
		c-0.547-0.062-1.182-0.095-1.904-0.095h-2.769V246.034z"/>
	<path fill="#009548" d="M120,248.158v8.115h-2.388v-19.6h5.077c0.858,0,1.588,0.031,2.188,0.096c0.6,0.062,1.148,0.163,1.646,0.3
		c1.365,0.371,2.409,1.003,3.131,1.897c0.722,0.893,1.083,2.009,1.083,3.347c0,0.791-0.127,1.499-0.381,2.124
		s-0.61,1.167-1.069,1.626s-1.009,0.835-1.647,1.128c-0.641,0.293-1.351,0.508-2.132,0.645v0.059l5.801,8.379h-2.388l-6.035-8.115
		H120z M120,238.827v7.178h2.358c0.732,0,1.357-0.024,1.875-0.073s0.981-0.137,1.392-0.264c0.83-0.254,1.47-0.659,1.919-1.216
		s0.674-1.284,0.674-2.183c-0.01-0.84-0.225-1.516-0.645-2.029c-0.42-0.512-1.001-0.881-1.743-1.105
		c-0.352-0.107-0.771-0.186-1.26-0.234s-1.108-0.073-1.86-0.073H120z"/>
	<path fill="#009548" d="M139.254,254.12h10.049v2.153h-12.437v-19.6h11.895v2.153h-9.507v6.328h8.452v2.153h-8.452V254.12z"/>
	<path fill="#009548" d="M156.208,241.859c0,0.576,0.117,1.053,0.351,1.428c0.233,0.377,0.548,0.687,0.942,0.931
		s0.852,0.444,1.373,0.601c0.521,0.156,1.063,0.303,1.629,0.439c0.759,0.186,1.507,0.391,2.242,0.615
		c0.734,0.225,1.39,0.535,1.964,0.93c0.575,0.396,1.04,0.911,1.396,1.546s0.533,1.45,0.533,2.446c0,1.016-0.192,1.893-0.577,2.629
		c-0.386,0.738-0.917,1.344-1.597,1.816c-0.68,0.475-1.483,0.826-2.411,1.055c-0.928,0.23-1.943,0.345-3.047,0.345
		c-0.508,0-1.028-0.032-1.56-0.095c-0.533-0.064-1.041-0.149-1.523-0.257c-0.484-0.107-0.921-0.229-1.312-0.366
		s-0.698-0.273-0.923-0.41v-2.183c0.352,0.176,0.747,0.337,1.187,0.483s0.894,0.271,1.362,0.373
		c0.469,0.104,0.942,0.184,1.421,0.242s0.928,0.088,1.348,0.088c0.684,0,1.335-0.059,1.956-0.176
		c0.619-0.117,1.164-0.312,1.633-0.586s0.84-0.646,1.113-1.121c0.273-0.473,0.41-1.066,0.41-1.779c0-0.586-0.12-1.069-0.359-1.45
		s-0.559-0.696-0.959-0.944c-0.4-0.25-0.862-0.452-1.385-0.608s-1.071-0.303-1.647-0.439c-0.762-0.176-1.507-0.374-2.233-0.593
		c-0.729-0.221-1.377-0.525-1.949-0.916c-0.57-0.391-1.03-0.894-1.377-1.509s-0.52-1.401-0.52-2.358c0-0.996,0.182-1.854,0.546-2.57
		c0.365-0.719,0.857-1.312,1.479-1.78s1.339-0.815,2.149-1.04s1.675-0.337,2.593-0.337c1.045,0,2.019,0.101,2.922,0.3
		c0.903,0.201,1.731,0.462,2.483,0.784v2.212c-0.811-0.342-1.647-0.62-2.513-0.835c-0.863-0.215-1.789-0.327-2.775-0.337
		c-0.742,0-1.387,0.08-1.934,0.242c-0.547,0.16-1.001,0.391-1.362,0.688c-0.361,0.299-0.63,0.66-0.806,1.084
		C156.296,240.871,156.208,241.341,156.208,241.859z"/>
	<path fill="#009548" d="M181.278,246.136c0.605,0.088,1.15,0.249,1.633,0.483c0.484,0.234,0.898,0.534,1.246,0.901
		c0.346,0.365,0.612,0.801,0.798,1.303c0.186,0.504,0.278,1.077,0.278,1.722c0,0.459-0.067,0.94-0.203,1.442
		c-0.135,0.504-0.359,0.992-0.674,1.465c-0.313,0.475-0.725,0.911-1.231,1.312s-1.138,0.728-1.891,0.981
		c-0.58,0.195-1.223,0.332-1.928,0.41s-1.551,0.117-2.536,0.117h-5.014v-19.6h4.837c0.443,0,0.847,0.008,1.209,0.021
		c0.361,0.016,0.694,0.037,0.999,0.066c0.304,0.029,0.586,0.066,0.847,0.109c0.261,0.045,0.507,0.096,0.739,0.154
		c0.607,0.166,1.16,0.393,1.657,0.682c0.497,0.287,0.92,0.632,1.268,1.032s0.615,0.854,0.804,1.362
		c0.188,0.508,0.282,1.06,0.282,1.655c0,0.479-0.057,0.938-0.169,1.377s-0.293,0.845-0.541,1.216
		c-0.25,0.371-0.572,0.703-0.967,0.996c-0.396,0.293-0.877,0.537-1.443,0.732V246.136z M177.777,245.155
		c0.469,0,0.874-0.022,1.216-0.065c0.342-0.045,0.649-0.11,0.923-0.198c0.732-0.244,1.267-0.625,1.604-1.143
		c0.336-0.518,0.505-1.128,0.505-1.831c0-0.723-0.176-1.313-0.527-1.772s-0.903-0.801-1.655-1.025
		c-0.371-0.107-0.801-0.183-1.289-0.228c-0.488-0.043-1.064-0.065-1.729-0.065h-2.681v6.328H177.777z M174.145,247.308v6.812h2.886
		c0.684,0,1.318-0.032,1.904-0.095c0.586-0.064,1.084-0.164,1.494-0.301c0.449-0.146,0.83-0.334,1.143-0.564
		c0.312-0.229,0.564-0.482,0.754-0.762c0.191-0.277,0.327-0.573,0.41-0.886s0.125-0.63,0.125-0.952c0-0.371-0.044-0.721-0.132-1.047
		c-0.088-0.328-0.232-0.621-0.433-0.879c-0.2-0.26-0.464-0.486-0.791-0.682s-0.734-0.347-1.223-0.454
		c-0.293-0.068-0.628-0.117-1.004-0.146s-0.842-0.044-1.398-0.044H174.145z"/>
	<path fill="#009548" d="M197.472,248.392v7.881h-2.388v-7.881l-7.134-11.719h2.607l5.684,9.521h0.073l5.684-9.521h2.607
		L197.472,248.392z"/>
	<path fill="#009548" d="M215.613,256.273h-2.388v-17.446h-6.548v-2.153h15.483v2.153h-6.548V256.273z"/>
	<path fill="#009548" d="M228.524,254.12h10.049v2.153h-12.437v-19.6h11.895v2.153h-9.507v6.328h8.452v2.153h-8.452V254.12z"/>
	<path fill="#009548" d="M246.562,248.158v8.115h-2.388v-19.6h5.077c0.858,0,1.588,0.031,2.188,0.096
		c0.6,0.062,1.148,0.163,1.646,0.3c1.365,0.371,2.409,1.003,3.131,1.897c0.722,0.893,1.083,2.009,1.083,3.347
		c0,0.791-0.127,1.499-0.381,2.124s-0.61,1.167-1.069,1.626s-1.009,0.835-1.647,1.128c-0.641,0.293-1.351,0.508-2.132,0.645v0.059
		l5.801,8.379h-2.388l-6.035-8.115H246.562z M246.562,238.827v7.178h2.358c0.732,0,1.357-0.024,1.875-0.073s0.981-0.137,1.392-0.264
		c0.83-0.254,1.47-0.659,1.919-1.216s0.674-1.284,0.674-2.183c-0.01-0.84-0.225-1.516-0.645-2.029
		c-0.42-0.512-1.001-0.881-1.743-1.105c-0.352-0.107-0.771-0.186-1.26-0.234s-1.108-0.073-1.86-0.073H246.562z"/>
	<path fill="#009548" d="M264.029,256.273v-19.6h2.388v19.6H264.029z"/>
	<path fill="#009548" d="M271.52,256.273l7.983-19.6h2.065l7.983,19.6h-2.593l-2.341-5.903h-8.194l-2.341,5.903H271.52z
		 M280.514,239.72c-0.874,2.439-1.71,4.656-2.505,6.65l-0.732,1.846h6.496l-0.743-1.844c-0.805-2.03-1.623-4.248-2.457-6.652
		H280.514z"/>
	<path fill="#009548" d="M304.118,247.601c1.201,1.729,2.388,3.506,3.56,5.332h0.088c-0.127-1.904-0.19-3.848-0.19-5.83v-10.43
		h2.402v19.6h-2.388l-7.69-10.928c-1.328-1.904-2.515-3.682-3.56-5.332h-0.088c0.127,1.787,0.19,3.872,0.19,6.255v10.005h-2.388
		v-19.6h2.373L304.118,247.601z"/>
	<path fill="#009548" d="M332.249,238.431c-1.098,0-2.124,0.174-3.078,0.52c-0.954,0.348-1.782,0.865-2.483,1.553
		c-0.702,0.689-1.256,1.543-1.661,2.564c-0.406,1.02-0.608,2.209-0.608,3.566c0,1.348,0.188,2.518,0.563,3.508
		c0.376,0.992,0.909,1.812,1.602,2.461c0.691,0.65,1.524,1.131,2.498,1.443s2.059,0.469,3.255,0.469
		c0.326,0,0.673-0.018,1.038-0.051c0.366-0.035,0.734-0.084,1.104-0.146c0.371-0.064,0.731-0.137,1.083-0.221
		c0.351-0.082,0.664-0.173,0.941-0.271v2.109c-0.576,0.225-1.245,0.397-2.007,0.521c-0.762,0.121-1.543,0.183-2.344,0.183
		c-1.631,0-3.076-0.228-4.336-0.681c-1.26-0.455-2.317-1.106-3.171-1.956c-0.855-0.85-1.502-1.888-1.941-3.112
		c-0.439-1.227-0.659-2.615-0.659-4.168c0-1.523,0.231-2.925,0.696-4.204c0.463-1.279,1.132-2.378,2.006-3.296
		s1.934-1.633,3.18-2.146c1.244-0.512,2.644-0.769,4.196-0.769c0.41,0,0.815,0.017,1.216,0.052c0.4,0.033,0.783,0.082,1.15,0.146
		c0.365,0.062,0.705,0.139,1.018,0.227s0.581,0.181,0.806,0.278v2.109c-0.593-0.195-1.241-0.358-1.943-0.491
		C333.668,238.498,332.961,238.431,332.249,238.431z"/>
	<path fill="#009548" d="M344.346,245.155h10.269v-8.481h2.388v19.6h-2.388v-8.965h-10.269v8.965h-2.388v-19.6h2.388V245.155z"/>
	<path fill="#009548" d="M371.056,254.515c0.713,0,1.345-0.083,1.896-0.249s1.033-0.4,1.443-0.703s0.752-0.667,1.025-1.091
		c0.273-0.426,0.483-0.896,0.63-1.414c0.098-0.322,0.166-0.682,0.205-1.076c0.039-0.396,0.059-0.779,0.059-1.15v-12.158h2.388v12.1
		c0,0.459-0.024,0.938-0.073,1.436s-0.127,0.962-0.234,1.392c-0.186,0.723-0.464,1.392-0.835,2.007s-0.854,1.147-1.45,1.597
		s-1.312,0.801-2.146,1.055c-0.836,0.254-1.814,0.381-2.938,0.381c-1.074,0-2.017-0.117-2.827-0.352s-1.507-0.56-2.087-0.974
		c-0.582-0.416-1.058-0.908-1.429-1.48c-0.371-0.57-0.659-1.193-0.864-1.867c-0.146-0.488-0.252-1.011-0.314-1.567
		c-0.064-0.557-0.096-1.099-0.096-1.626v-12.1h2.388v12.158c0,0.439,0.031,0.891,0.095,1.355c0.063,0.463,0.164,0.886,0.301,1.267
		c0.342,0.947,0.91,1.694,1.707,2.241C368.694,254.242,369.747,254.515,371.056,254.515z"/>
	<path fill="#009548" d="M387.497,248.158v8.115h-2.388v-19.6h5.077c0.858,0,1.588,0.031,2.188,0.096
		c0.6,0.062,1.148,0.163,1.646,0.3c1.365,0.371,2.409,1.003,3.131,1.897c0.722,0.893,1.083,2.009,1.083,3.347
		c0,0.791-0.127,1.499-0.381,2.124s-0.61,1.167-1.069,1.626s-1.009,0.835-1.648,1.128s-1.35,0.508-2.131,0.645v0.059l5.801,8.379
		h-2.388l-6.035-8.115H387.497z M387.497,238.827v7.178h2.358c0.732,0,1.357-0.024,1.875-0.073s0.981-0.137,1.392-0.264
		c0.83-0.254,1.47-0.659,1.919-1.216s0.674-1.284,0.674-2.183c-0.01-0.84-0.225-1.516-0.645-2.029
		c-0.42-0.512-1.001-0.881-1.743-1.105c-0.352-0.107-0.771-0.186-1.26-0.234s-1.108-0.073-1.86-0.073H387.497z"/>
	<path fill="#009548" d="M413.235,238.431c-1.098,0-2.124,0.174-3.078,0.52c-0.954,0.348-1.782,0.865-2.483,1.553
		c-0.702,0.689-1.256,1.543-1.661,2.564c-0.406,1.02-0.608,2.209-0.608,3.566c0,1.348,0.188,2.518,0.563,3.508
		c0.376,0.992,0.909,1.812,1.602,2.461c0.691,0.65,1.524,1.131,2.498,1.443s2.059,0.469,3.255,0.469
		c0.326,0,0.673-0.018,1.038-0.051c0.366-0.035,0.734-0.084,1.104-0.146c0.371-0.064,0.731-0.137,1.083-0.221
		c0.351-0.082,0.664-0.173,0.941-0.271v2.109c-0.576,0.225-1.245,0.397-2.007,0.521c-0.762,0.121-1.543,0.183-2.344,0.183
		c-1.631,0-3.076-0.228-4.336-0.681c-1.26-0.455-2.317-1.106-3.171-1.956c-0.855-0.85-1.502-1.888-1.941-3.112
		c-0.439-1.227-0.659-2.615-0.659-4.168c0-1.523,0.231-2.925,0.696-4.204c0.463-1.279,1.132-2.378,2.006-3.296
		s1.934-1.633,3.18-2.146c1.244-0.512,2.644-0.769,4.196-0.769c0.41,0,0.815,0.017,1.216,0.052c0.4,0.033,0.783,0.082,1.15,0.146
		c0.365,0.062,0.705,0.139,1.018,0.227s0.581,0.181,0.806,0.278v2.109c-0.593-0.195-1.241-0.358-1.943-0.491
		C414.654,238.498,413.947,238.431,413.235,238.431z"/>
	<path fill="#009548" d="M425.332,245.155h10.269v-8.481h2.388v19.6h-2.388v-8.965h-10.269v8.965h-2.388v-19.6h2.388V245.155z"/>
</g>
</svg>
